<svg id="Layer_1" data-name="Layer 1" xmlns="http://www.w3.org/2000/svg" viewBox="0 0 512 512"><defs><style>.cls-1{fill:#707070;}</style></defs><title>user-handdrawn</title><path class="cls-1" d="M457.58,465.74l-.71-14-2.07-13.88c-.58-4.65-2.16-9.1-3.2-13.66a167.81,167.81,0,0,0-23.72-50.56c-3.43-4.36-6.25-9.07-10-13.12l1.66,1.69a167.94,167.94,0,0,0-87.75-54.46,76.66,76.66,0,0,0-.4-9.77c-.33-2.61-.65-6.67-.93-11.37,0-.47-.05-1.25-.07-2.17a151.1,151.1,0,0,0,17-11.94,137.15,137.15,0,0,0,25.7-29A128.88,128.88,0,0,0,392,195.79c.35,1.06-.63,6.35-.1,5.54.21-.42,1.1-2.31,1.85-7.21.41-2.44,1-5.6,1.56-9.67.22-4,.64-9.27.75-15,.33,1.55.49,3,.67,4.52.31-16.29.42-31.89.36-42.93a120.34,120.34,0,0,0-9.39-46.45c-3-7.14-4.75-9.19-7-13.52l.47,1.39A135.83,135.83,0,0,0,368.75,53a82.67,82.67,0,0,0-6.92-8.39c-2.27-2.47-4.15-4.87-6-6.51A127.37,127.37,0,0,0,319.93,12.7,130.37,130.37,0,0,0,273,.39c-4.85-.2-11.8-.68-17.76-.13a132.08,132.08,0,0,0-84.16,35.22,128.09,128.09,0,0,0-25,31,130.56,130.56,0,0,0-14.82,37c-1.64,5.43-2,11.22-3,16.91-.4,5.62-.77,11.83-.81,17l-.14,30c-.12,3.56.14,7.91.31,12,.12,2.06.14,4.12.35,6.17l.88,6.11.91,6.09c.38,2,1,4,1.43,6a91.23,91.23,0,0,0,3.45,11.78,131.37,131.37,0,0,0,24.48,42.75l6.49,7.18c3.49,3.76,6.74,6.51,9.42,9s5.39,4.1,7.69,5.81a52.77,52.77,0,0,0,4.74,3.22q0,6.32,0,12.66a175.65,175.65,0,0,0-88.62,54.27l-2.19,2.68c10.72-12.28,23.37-22.64,36.75-31.72a188,188,0,0,1,43.85-20.32,41.45,41.45,0,0,1,5.65-1.81,43,43,0,0,0-5.53,2.14q5.1-1.55,10.09-2.81c0,3.76,0,7.52,0,11.24,0,2,0,4.1,0,6.17l-2.56.67-7,2.6c-15,5.33-25,11.54-31.1,15-3.47,1.73-6.81,4.34-10.71,7.17-1.91,1.46-4.07,2.85-6.12,4.65l-6.46,5.87c-4.85,4-8.76,9-13.12,13.57l-.14-.06a155.72,155.72,0,0,1,37.09-32.49,69.83,69.83,0,0,0-8.84,5.93l-7.1,5.29c-2.32,1.8-4.37,3.89-6.57,5.82C103.37,369,88,394.39,79.32,421c-1.32,5.39-3.1,11.1-4.24,16.59l-2.51,14.84c-.66,8.29-1.17,12.2-1.11,5.56-.19-10,2.18-24.34,5.43-37.23.38-1.67,2.75-7.65,4.17-11.64l-.25,1.62c.81-2.2,1.44-4.34,2.31-6.34l2.76-5.9a99.89,99.89,0,0,1,6.56-12.69,75.52,75.52,0,0,0-5.68,10.09l-2.27,4.56c-.46.38-1.11,1.29-1.08.82.2-1.31-3.56,4.33,5.38-13.93,2.11-3.56,4.71-8.26,7.2-12.12,2.68-3.72,4.9-6.84,5.45-7.74a50.34,50.34,0,0,1,3.4-4.85l7.54-8.37a185.4,185.4,0,0,1,19-17.42c3.3-2.72,0-.64-.53-.61l6.13-4.73c-6,4.54-11.22,8.05-15.22,12-4.15,3.79-8,7-11.17,10.8L109,356.61c-5.61,5.64-9.86,11.85-14.34,17.65-2.1,3-3.87,6.16-5.8,9.21a73,73,0,0,0-5.26,9.43l-4.75,9.9c-1.39,3.43-2.58,7-3.91,10.6l-2,5.49-1.47,5.82c-.89,4-2.24,7.95-2.85,12.25a50.23,50.23,0,0,1,1.23-6.67,82.26,82.26,0,0,0-2.25,11.37l-1.51,9.66c-.41,2.66-.72,3.58-1.17,8l-.55,7.39a31.17,31.17,0,0,0,.81,9.4,34.65,34.65,0,0,0,14.23,20.49,34.16,34.16,0,0,0,11.41,5,50,50,0,0,0,11.79.94l43.8.15,21.48,0,101.24-.49,123.29-.87c14.84-.16,36.16-.22,32.25-.85-1-.21-.32-.15,3.38-.41a31.8,31.8,0,0,0,27.3-20A32.45,32.45,0,0,0,457.58,465.74Zm-221-450.31c-4,1.15-7.9,2.07-11.77,3.38C221,20.36,217,21.6,213,23.53a154.2,154.2,0,0,0-15.71,8.23l6.51-4,5-2.48-.46.17-4.47,2.18-4.34,2.65a91.29,91.29,0,0,0-8,5.15C207.55,23,227.39,16.94,236.57,15.42ZM166.18,261.08a106.23,106.23,0,0,1-8.17-9.77,145.24,145.24,0,0,1-11.69-17.69c-5.45-10.57-10-21.92-12.45-33.37-1.08-3.9-1-7-1.47-10.38l.74,3.8a130.73,130.73,0,0,0,34.28,68.46Zm14.52,6.51c-3.52-3.33-7.33-6.19-10.1-9.52A109.52,109.52,0,0,1,152.34,233a178.21,178.21,0,0,1-10.15-24.13l-2.1-8.16-1-4.09-.62-4.17.14-.06A124.9,124.9,0,0,0,157,239.15a117.58,117.58,0,0,1-7.72-14.09c-2.46-4.66-4.07-9.6-5.86-14.46a128,128,0,0,1-6.29-37.19c-.21-12.35,0-24.43-.05-36.5.06-4.79.49-10.15.84-15.06.86-4.89,1.54-9.49,2.41-13,2.06-7,3.2-10.23,2-4.58-2.13,8.39-3,21-2.85,32.27,0,1.45,0,6.86,0,10.45l-.32-1.35.34,23.3.23-14.08c.25-.45.44-1.38.62-1,.51,1.06,1.06-4.51,1.47,12.43,0,3.46.27,7.89.58,11.66a42.14,42.14,0,0,0,.88,7.73c.32,1.15.6,2.59,1,4.75a66.08,66.08,0,0,0,1.85,9,104.06,104.06,0,0,0,7,19.84c1.69,3.05.59.1.72-.36l2.81,5.55c-1.29-2.73-2.54-5.2-3.57-7.56l-2.46-6.78c-1.73-4.18-2.38-8.16-3.45-12l-.9-2c-2.43-12.63-2.53-23.89-2.39-35.88s-.5-24.28.56-38.12c-.16,2.69-.06,3.95-.1,5.46l.28-4.84.71-4.41c.47-2.81.81-5.4,1.28-7.73a64.55,64.55,0,0,0,2.34-6c.34-.86.83-3.2,1.74-5.6L153,92.52A113.42,113.42,0,0,1,171,61.4a130,130,0,0,1,26.1-23.75,136.69,136.69,0,0,1,15.12-8.49,116.26,116.26,0,0,1,38.77-11A119.56,119.56,0,0,1,337.31,44,121.36,121.36,0,0,1,368.12,82.2c3,5.32,5.43,12.3,7.41,17.42,1.47,5.28,2.53,8.71,2.43,7.08s1.68,2.47,3.25,18.17c.12,3.86.51,8,.51,12.13v23.26l0,11.62-.58,11.46A119.36,119.36,0,0,1,367.89,227c-2.14,4-4.66,7.68-7.07,11.45a16,16,0,0,0,1-1.66,119.5,119.5,0,0,1-72.35,50.72c1.6-.15.43.35-2.68,1.3a129.94,129.94,0,0,1-14.61,2.27c-3.06.74-5,1.36-8.72,2.05-2.54.48-1.23.65,4.08.52,2.64-.17,6.34.06,10.94-.81l7.67-1.17c2.78-.55,5.76-1.45,9-2.27a123.77,123.77,0,0,0,45-23.57c8.29-7.16,16.86-16.24,21.93-23.94,15.42-22.46,23.52-50.37,21.77-81.17l-.15-19.63a155.52,155.52,0,0,0-2.77-30.3c.53,1.3.82.39-.07-3.37l-1.9-8c-1.06-3.38-2.61-7.52-4.52-12.53A130,130,0,0,0,357.7,59.13C336,31.22,301.53,14.05,266.29,13a2.05,2.05,0,0,1-.53-.13l5.38.21a54.22,54.22,0,0,1,8.24.88c2.73.44,5.49.75,8.19,1.31,5.34,1.45,10.8,2.47,15.93,4.6,10.51,3.51,20.28,9,29.38,15.22s17,14.17,24.28,22.54a131.1,131.1,0,0,1,17.31,28.28c1.45,3.1,2.35,6.59,3.66,10a60.2,60.2,0,0,1,2.25,7.68c.62,2.6,1.44,5.16,1.89,7.8.72,5.31,1.91,10.57,1.94,15.94a7.7,7.7,0,0,0,.41-3.15c0-3.72-.63-7.76-1-12s-1.62-8.59-2.42-13c2.37,8.07,3.44,12.11,3.81,15.6a66.32,66.32,0,0,1,1,12l.28,9.32.18,30.68a170.5,170.5,0,0,1-1.16,24.38,49.18,49.18,0,0,1-1.53,9.27,123.27,123.27,0,0,1-20,43.71A155.69,155.69,0,0,1,351,259.59c-4.43,4.06-8,7.93-11.31,10.36-6.36,5.15-9.16,7.51-5.83,5.59,4.67-2.69-9.11,8.76-23.39,14.44l-9.29,3.46c-2.81.94-5.41,1.51-7.68,2.17a82.41,82.41,0,0,1-10.74,2.47c-5.36,1-7.33,1.64-8.21,1.85-.67.24,3,.2-.21.54-7,.64-8.57,1-6.48,1.07a76.67,76.67,0,0,0,15.37-1,87.49,87.49,0,0,1-12.67,1.87l5.35-.21,5.27-.69c3.53-.54,7.22-.79,11.09-1.91a125.48,125.48,0,0,0,16.65-5.07c-.12,3.87-.2,8.14-.24,12.6,0,3.59,0,7.27,0,10.93l0,2.69,0,0,.08.1,0,.12,0,.06,0,0-.75.46-3.92,2.36-39.25,23.52-2.45,1.48-.08.07-.14.12L262,349l-4.74-2.78-12-7.13c-9.56-5.7-19.77-11.82-28.6-17.31l-1-.62c-.11-.08,0,0-.08-.07l0-.06-.06-.11.05-.14c0-.11,0,.49,0-1.82l0-9.77-.1-13.7c3.63,1.12,6.26,1.79,4.64,1.07-2.08-1-.9-.74,1.72.05s6.85,1.58,10.66,2.46c-3.77-1.09-7.27-1.82-10.82-3.11-1.87-.74-3.83-1.45-5.91-2.24l.52-.05c6.24,2.19,8.25,2.52,10.65,2.86,3.08.36,6.64,1.68,21.34,3.52l-9.8-1.63c4.06.22,7.89.63,11.77.64l12-.45c-15-.26-26.58-2.29-36.92-5.47,1.28,0,2.57-.08,3.85-.09,5.76-.25,13.12-.15,17.35-.3,25.7-.52,14.67-1.78-18.14-1.89-3,0-6,.11-9,.29q-2.41-.88-4.77-1.83c.11-.25,3.88.77-.39-1-2.82-1.24-6.14-3.13-9.94-5s-7.63-4.56-11.8-7C188.49,273.58,184.43,270.68,180.7,267.59Zm136.82,63,4.08-2.47-.13-38.91.44-.21q0,19.63-.1,39.24L315.54,332c-.1.06-.17,0-.29.05Zm-29.89,18.14-9.76,5.9c9.37-6.08,19.08-11.95,23.72-14.37l-11.43,7.34-9.5,5.53,7.21-4.51Zm-78-16.87,6.49,4.16c.08.34.42.76.15.81-.76.14,1.57,2.18-6.59-2.24-2.86-1.54-7.7-4.3-9.36-5.11a5.59,5.59,0,0,0-.07-.81,40.64,40.64,0,0,1-.28-6.6c2-.48,3.83-.89,5.6-1.24q0,2.84,0,5.67l20.33,12.26c8.91,5.42,20.1,12.92,14.52,10.22-4.18-2-10.12-5.18-15.58-8L220,338l.8.1ZM212,303.27c0,5.87,0,11.86,0,17.62a8,8,0,0,1-.37,1.56l-.16-.53.23-27.59.19.07C211.94,297.35,212,300.29,212,303.27Zm-6.09,17.53.19,0,0,2.74-.14.05ZM189.34,284.7c2.44,1.42,5,2.81,7.88,4.57a38.19,38.19,0,0,0,7.91,3.22c1.08.31-2.52-1.65-.63-.93.55.27,1.26.58,2.06.9a172.5,172.5,0,0,0-17.72,3.43ZM188,314.18l.46-10.3.25-5.53c6.06-1.49,12-2.67,18-3.52,0,3-.1,5.45-.24,7.24-.22,2.75-.29,5.89-.32,9.78l-.32,0L205.69,298c0,4.8-.06,9.38-.09,13.92l-5.18.8-.56.13c-.05-2-.11-3.61-.19-4.32-.2-1.94-.49-.19-.81,0l-.12-3.49,0,8.05c-2.08.51-4.14,1.09-6.19,1.61l-4.57,1.19Zm-73.35,54.7c4.56-4.94,8.93-10.06,14.12-14.35,4.8-4.72,10.37-8.51,15.73-12.54,11.21-7.31,23-14,35.77-18.11l-1.5.77-6.21,2.19c-2,.87-4,1.86-5.94,2.8-3.25,1.68-6.68,3-9.74,5l-9.34,5.72c-2.62,1.59-5,3.64-7.46,5.43s-5.08,3.53-7.27,5.72c-4.48,4.23-9.3,8.07-13.16,12.71-2.74,3.13-5.21,5.07-7.42,7.89A24.4,24.4,0,0,1,114.68,368.87Zm57,129-24-.14,18.58-.15-.58,0-24.91,0c24.38-.39,49.16-.43,60.56-.11Zm-47.19-13.21-21.53,0h-2.68c-.89,0-1.91,0-2.23,0a18.81,18.81,0,0,1-2.92-.31,16,16,0,0,1-5.38-2.18A16.92,16.92,0,0,1,82.65,473a20.1,20.1,0,0,1-.61-2.88,18.31,18.31,0,0,1-.07-3.61l.49-9.88a49.27,49.27,0,0,1,.87-8.37l1.27-8.42c1-5.59,2.73-11.07,4.08-16.58,2.08-5.27,3.69-10.69,6-15.67l3.58-7.33,1.75-3.6,2.08-3.34a145.12,145.12,0,0,1,30.75-37.2,160.33,160.33,0,0,1,40.79-26.07l8.94-3.23,4.8-1.4.16,2.66.07-2.73c4.47-1.28,8.16-2.28,11.41-3.08,0,2.78-.07,5.45-.1,8L211.52,338l18.11,10.68-2.74-1.37,8.19,5a21.22,21.22,0,0,0,2.7,2.51c.83.63,4.49,3,6.06,3.93l8.28,4.89,10.07,6.1,20.56-12.15,8.42-5.09,16.51-10.22,18.8-11.46c0-3-.05-5.95-.08-8.85-.18-11.78-.36-23.54-.54-35q1.29-.7,2.59-1.44c.05,5.23.18,9.87.27,15l.22,18.66c0,.18-.07.36-.11.55l.11,0,.14,12.51L316.63,340c-.86.68-2.75,2.09-3.74,3-.46.41.23.19,1.41-.39l3.14-1.6,4-2.1c3.41-1.86,6.39-3.47,7.19-3.74a24.14,24.14,0,0,0,2.91-1.4c.17-2.88.22-8.1.24-13.15l5.56,1.43c4.63,1.55,8.83,3.19,11.22,4.08,21.35,8.29,44.54,24.91,61.42,45a157.67,157.67,0,0,1,26,45.48c-.69-.83-2.91-5.79-2.89-4.81,0,.49.57,2.46,2.17,7.15l1.41,4,1.33,5.34c.87,4,2.53,8.76,3.16,14.81l-1.48-4.48,1.85,12.74c.49,4.24.44,8.48.69,12.5l.14,3,.05,1.41-.07.87a12.9,12.9,0,0,1-.55,3.23,16.37,16.37,0,0,1-2.42,5,17,17,0,0,1-11.55,6.75c-.56.11-1.14,0-1.71.11s-2,0-3,0h-6.36l-12.52.08c-8.28.08-11.07.45-16.33.68l1.56.19-46.26-.35c-25.68-.55-67.39-.71-99.66-.29l-19.09.07ZM455,474.68a30,30,0,0,1-24.72,23.42c1.55-.73.53-.44-3.95-.4l-25.51-.14-38.59.07-125.46-.15a2.79,2.79,0,0,1-.63-.11l6.38-.06,157.2-.24,12.62.15c6.23-.16,12.82.43,18.72-.5a28.87,28.87,0,0,0,15.76-8.57,15.63,15.63,0,0,0-2.92,2,29.24,29.24,0,0,1-12,5.16,31.23,31.23,0,0,1-7,.37l-7.78-.34c4.82-.13,8.75-.1,11.19-.36a30.36,30.36,0,0,0,6.22-1.41,29.26,29.26,0,0,0,10.72-6.33,27,27,0,0,0,5.59-8,29.33,29.33,0,0,0,2.08-15.74c-.33-6.21-.56-12.74-1.84-18.82l-1.47-8.83-2.12-7.68c-1.29-4.7-2.32-8.46-3.35-10.52-1-2.33-2.58-6.19-3.93-9.88a164,164,0,0,0-29-45.94c-5.27-6.3-11.21-11.23-16.25-15.77-5.34-4.19-10.19-7.56-14-10.15-8-4.55-11.6-6.32-8.15-3.8,2.35,1.77-.7.22-6.22-2.53-5.74-2.34-13.77-6.27-21.64-8.72-5-1.76-9.36-3-13.2-4l0-5.71a160.66,160.66,0,0,1,53.65,24.21c5.13,3.86,10.79,7.75,15.5,12.4,2.41,2.25,4.92,4.31,7.06,6.52l5.91,6.41c21.61,23.56,36.54,54.36,40.83,90.79l.66,11.82A38.16,38.16,0,0,1,455,474.68ZM153.67,329.25c-2.13,1.33-4.29,2.57-6.42,3.83Q150.41,331.09,153.67,329.25Zm30.55,181.93-8.07.17-62,.65-9-.3-5.28-.16-1.53,0-2.13-.13a32.57,32.57,0,0,1-4.51-.56A43.56,43.56,0,0,1,66,496.5c-.08.14-2.57-2.37.21.92,4.8,5.37,7.22,6.7,4.71,5.08a43.09,43.09,0,0,1-6.33-6.07,44,44,0,0,1-8.45-15.78,44.81,44.81,0,0,1-1.5-7.31,43,43,0,0,1-.25-6.89l.53-11.21c.11-1.87.15-3.75.32-5.62L56,444l1.68-11.11c3.3-14.53,7.64-28.62,13.94-40.62,2.42-4.85,5.35-10.36,5-9.31-1.23,3-2.37,6.44-3.74,10a95.78,95.78,0,0,0-3.85,11.56c-.49,1.77-1.49,4.77-3.08,9.29s-2.9,10.85-5.08,18.92l-2.33,14.8c-.8,4.94-.7,10-1.08,15l-.19,3.76-.09,1.9.1,2.4a40.75,40.75,0,0,0,11.27,26,40.9,40.9,0,0,0,16,10.45,42.12,42.12,0,0,0,9.41,2.19c1.56.14,3.3.21,4.72.25h31.84C164.86,509.55,197.61,510.47,184.21,511.18Zm247.4-6.51a36.54,36.54,0,0,0,16.13-5.5,37.94,37.94,0,0,1-20,7c-2,.13-3.36.09-4.91.11l-4.6,0-9.42,0c-12.73,0-26.07,0-39.38-.24-4-.07-19.1,0-23.3.11-10.27.27-19.14.59-24.84.93-5.45.32-13.35.47-27.18.37-16.28-.12-40.17.1-44.38-.6-2-.34-18.35-.63-27.17-1-2.85-.11-4.41-.27-3.08-.39l10.35-.63,85.63-.51c18.06-.14,32.82-.4,55.06-.26l47.95,0,6,.55A37,37,0,0,0,431.61,504.67ZM239.34,367.74c-10.66-6.38-22.17-12.93-31.71-19.21-1.91-1.26-4.08-2.78-3.63-2.65,2.71.78,6,1.89,9.43,3.14,1.5.54,4.85,2.46,11,6.2l37.77,22.87,17.93-10.75c13.42-8.06,26.74-15,21.85-11.22-.48.37-1.85,1.26-3.08,2l-25.52,16.07-11.18,6.2-4.39-2.83L245,369.9c-.07.14-1.13-.28,0,.53C248.7,373.12,247.53,372.65,239.34,367.74ZM162.73,95c-3.89,9.28-5.9,19.53-7.13,29.59-.69,9.59-.52,21.52-.79,31.82-.1,4.17-.29,9-.41,8.18-.72-5-1.44-11.1-2.15-17.73a150,150,0,0,1,.18-22,111,111,0,0,1,39-74.16,104.94,104.94,0,0,1,29.06-17c7.79-2.49,11.27-3.38,6.69-1.29-.9.41-3.38,1.38-5.61,2.23A105.36,105.36,0,0,0,184.07,61l-4.75,4.76c-1.65,1.82-3.3,4-5.38,6.6a40.08,40.08,0,0,0-3.86,5.81,67.93,67.93,0,0,0-4.28,7.59c.15.05-.47,1.78.59-.18C170.37,79.31,169,80.92,162.73,95Zm92.1-73.45c-2.24,0-3.48-.1-2.45-.27,2.22-.36,6.26-.8,8.14-1A114.44,114.44,0,0,1,325,38.37c11.93,7.9,21.18,15.69,31.55,30.08a123.53,123.53,0,0,1,16.54,34.26l1.31,9.61.64,10.93a120.6,120.6,0,0,0-20.58-54.36c-1-1.24-3.05-4.36-5.52-7.2L342.66,55l-8.45-7.14-7-4.61c-1.73-1.23-4-2.44-7-4.13l-4.95-2.91L308.83,33a72.82,72.82,0,0,0-9.46-3.86,74.09,74.09,0,0,0-10-3l-4.54-1.23-4-.69A36.42,36.42,0,0,1,276,23.08c-.75-.41-4.3-.84-8.55-1.15A89.8,89.8,0,0,0,254.83,21.56ZM185.66,249.29l3.39,2.47L185.9,249a116.14,116.14,0,0,1-19.32-27.46,107.61,107.61,0,0,1-9.83-31.77l.52,2.3c.74,3.44,1.75,6.85,2.58,10.29,1.09,3.36,2.41,6.63,3.53,9.9,9.88,24.38,30.18,44.9,53,55.94l3.83,2,3.64,1.44,6.16,2.52c3.7,1.12,6.29,2,7.57,2.51,2.58,1-.15.93-9.59-1.52-2.93-1.08-8.51-2.64-12.08-4.66A105.37,105.37,0,0,1,185.66,249.29Z"/></svg>